<svg width="18" height="16" viewBox="0 0 18 16" fill="none" xmlns="http://www.w3.org/2000/svg">
<path fill-rule="evenodd" clip-rule="evenodd" d="M1.24355 6.914C6.0686 4.6371 9.2939 3.16545 10.9195 2.4435C15.5123 0.38874 16.467 0.0277671 17.0862 0C17.2152 0 17.5249 0.0277673 17.7313 0.19437C17.8861 0.333205 17.9377 0.527575 17.9635 0.66641C17.9893 0.805246 18.0151 1.11068 17.9893 1.36059C17.7313 4.16506 16.6734 11.0235 16.1057 14.1612C15.8735 15.494 15.4091 15.9383 14.9704 15.9938C14.0157 16.0771 13.2675 15.2997 12.3386 14.661C10.8936 13.6336 10.068 12.995 8.64884 11.9954C7.02329 10.8292 8.08119 10.1905 9.01007 9.16314C9.24229 8.88546 13.4997 4.74817 13.5771 4.35943C13.5771 4.3039 13.6029 4.1373 13.4997 4.05399C13.3965 3.97069 13.2675 3.99846 13.1643 4.02623C13.0094 4.05399 10.6872 5.72002 6.17181 8.99653C5.50095 9.49634 4.90749 9.71848 4.36564 9.71848C3.77218 9.71848 2.63688 9.3575 1.7854 9.05207C0.753302 8.69109 -0.0723748 8.49673 0.00503243 7.88585C0.0566372 7.58041 0.469476 7.24721 1.24355 6.914Z" fill="white"/>
</svg>
