<svg width="23" height="23" viewBox="0 0 23 23" fill="none" xmlns="http://www.w3.org/2000/svg">
<path fill-rule="evenodd" clip-rule="evenodd" d="M19.6488 3.34223C17.487 1.18803 14.6118 0.00109295 11.5483 0C5.23576 0 0.0982905 5.11227 0.096094 11.3962C0.0949958 13.405 0.622691 15.3657 1.62482 17.0937L0 23L6.07095 21.4152C7.74353 22.3235 9.62697 22.8016 11.5434 22.8022H11.5483C17.8598 22.8022 22.9978 17.6894 23 11.4055C23.0011 8.35999 21.8112 5.49699 19.6488 3.34278V3.34223ZM11.5483 20.8775H11.5445C9.83672 20.877 8.16142 20.4201 6.69971 19.5572L6.3521 19.3518L2.74939 20.2922L3.71088 16.7964L3.48465 16.4379C2.53194 14.9297 2.02841 13.1864 2.02951 11.3967C2.03171 6.17407 6.30158 1.92468 11.5522 1.92468C14.0945 1.92577 16.4843 2.91216 18.2815 4.70296C20.0787 6.49321 21.0677 8.87367 21.0666 11.4044C21.0644 16.6276 16.7945 20.877 11.5483 20.877V20.8775ZM16.7692 13.7832C16.4831 13.6406 15.0764 12.952 14.8139 12.8569C14.5514 12.7618 14.3609 12.7143 14.1703 12.9995C13.9798 13.2848 13.4312 13.9264 13.2643 14.116C13.0974 14.3061 12.9304 14.3297 12.6443 14.187C12.3583 14.0444 11.4363 13.7438 10.343 12.7738C9.49248 12.0186 8.91806 11.0863 8.75118 10.801C8.58424 10.5158 8.73361 10.3617 8.87634 10.2202C9.00482 10.0923 9.16243 9.88736 9.30574 9.72122C9.4491 9.55508 9.49632 9.43599 9.59183 9.24633C9.68741 9.05615 9.63962 8.89007 9.56826 8.7474C9.49683 8.60478 8.9247 7.20305 8.68582 6.63309C8.45352 6.07789 8.21745 6.1533 8.04227 6.14401C7.87533 6.13581 7.68481 6.13418 7.49372 6.13418C7.30263 6.13418 6.99289 6.20522 6.73044 6.49048C6.46798 6.77571 5.72886 7.46481 5.72886 8.86598C5.72886 10.2671 6.75408 11.6219 6.89738 11.8121C7.04068 12.0022 8.91531 14.8783 11.7855 16.1123C12.4681 16.4057 13.0013 16.5811 13.4169 16.7123C14.1023 16.9292 14.726 16.8986 15.2191 16.8254C15.7688 16.7434 16.912 16.1363 17.1503 15.4712C17.3886 14.8062 17.3886 14.2356 17.3173 14.117C17.2459 13.9985 17.0548 13.9269 16.7687 13.7843L16.7692 13.7832Z" fill="white"/>
</svg>
